<svg style="display:none">
    <symbol viewBox="0 0 27.857 27.857" id="mail">
        <path class="mail_1" d="M2.203 5.33l10.034 7.95c.455.36 1.082.52 1.69.49.61.03 1.236-.13 1.69-.49l10.035-7.95c.804-.632.622-1.15-.398-1.15H2.603c-1.02 0-1.203.518-.4 1.15z"/>
        <path class="mail_2" d="M26.377 7.428l-10.965 8.325c-.41.308-.947.458-1.482.45-.536.008-1.073-.143-1.483-.45L1.48 7.428C.666 6.81 0 7.142 0 8.163v13.66c0 1.02.836 1.856 1.857 1.856H26c1.02 0 1.857-.837 1.857-1.858V8.162c0-1.02-.666-1.35-1.48-.734z"/>
    </symbol>
    <symbol viewBox="0 0 430.114 430.114" id="location">
        <path class="location" d="M356.208 107.05c-1.53-5.737-4.64-11.85-6.94-17.204C321.746 23.704 261.61 0 213.055 0c-65 0-136.592 43.586-146.15 133.427v18.355c0 .766.264 7.647.64 11.09 5.357 42.815 39.142 88.32 64.374 131.135 27.144 45.873 55.312 91 83.22 136.106 17.207-29.436 34.353-59.26 51.17-87.933 4.582-8.415 9.902-16.825 14.49-24.857 3.06-5.348 8.9-10.696 11.57-15.672 27.144-49.697 70.837-99.78 70.837-149.102v-20.262c0-5.347-6.627-24.08-7-25.234zm-141.963 92.143c-19.107 0-40.02-9.554-50.344-35.94-1.536-4.2-1.412-12.616-1.412-13.387v-11.852c0-33.636 28.56-48.932 53.406-48.932 30.588 0 54.245 24.472 54.245 55.06 0 30.587-25.306 55.05-55.894 55.05z"/>
    </symbol>
    <symbol viewBox="0 0 27.442 27.442" id="cell">
        <path class="cell" d="M19.494 0H7.948C6.843 0 5.95.896 5.95 2v23.445c0 1.102.893 1.997 1.998 1.997h11.546c1.103 0 1.997-.895 1.997-1.997V2c0-1.104-.892-2-1.995-2zm-8.622 1.214h5.7c.144 0 .26.215.26.48s-.116.483-.26.483h-5.7c-.145 0-.26-.216-.26-.482s.115-.48.26-.48zm2.85 24.255c-.703 0-1.275-.574-1.275-1.278s.572-1.274 1.275-1.274c.7 0 1.273.57 1.273 1.273s-.572 1.277-1.273 1.277zm6.273-4.37H7.448V3.372h12.547V21.1z"/>
    </symbol>
    <symbol viewBox="0 0 56.966 56.966" id="search">
        <path class="search" d="M55.146 51.887l-13.558-14.1c3.486-4.145 5.396-9.36 5.396-14.787 0-12.682-10.318-23-23-23s-23 10.318-23 23 10.318 23 23 23c4.76 0 9.298-1.436 13.177-4.162l13.664 14.208c.57.593 1.34.92 2.162.92.78 0 1.518-.297 2.08-.837 1.19-1.15 1.23-3.05.082-4.245zM23.984 6c9.374 0 17 7.626 17 17s-7.626 17-17 17-17-7.626-17-17 7.626-17 17-17z"/>
    </symbol>
    <symbol viewBox="0 0 512 512" id="skype">
        <path class="skype" d="M487.654 288.97c1.406-10.4 2.215-20.973 2.215-31.736 0-129.153-105.27-233.872-235.104-233.872-12.904 0-25.555 1.06-37.866 3.08-22.07-14.384-48.34-22.767-76.61-22.767C62.765 3.675 0 66.483 0 143.98c0 28.2 8.3 54.395 22.59 76.39-1.925 12.017-2.91 24.323-2.91 36.86 0 129.175 105.218 233.88 235.086 233.88 14.657 0 28.927-1.428 42.796-3.934 21.55 13.37 46.934 21.148 74.145 21.148C449.21 508.327 512 445.504 512 368.014c-.004-29.294-8.96-56.53-24.346-79.044zM276.74 429.597c-74.705 3.894-109.664-12.637-141.69-42.69-35.764-33.566-21.397-71.855 7.74-73.802 29.123-1.942 46.608 33.015 62.15 42.736 15.525 9.69 74.595 31.76 105.794-3.906 33.977-38.828-22.594-58.92-64.06-65.002-59.203-8.765-133.95-40.79-128.135-103.906 5.814-63.074 53.58-95.414 103.85-99.976 64.075-5.817 105.79 9.707 138.784 37.86 38.148 32.53 17.508 68.894-6.8 71.82-24.212 2.91-51.403-53.504-104.79-54.352-55.028-.864-92.218 57.26-24.287 73.784 67.967 16.505 140.75 23.286 166.96 85.417 26.232 62.136-40.75 128.124-115.518 132.02z"/>
    </symbol>
    <symbol viewBox="0 0 438.536 438.535" id="linked">
        <path class="linked" d="M5.424 145.895H99.64v282.932H5.424zm403.418 25.845c-19.79-21.605-45.967-32.41-78.512-32.41-11.99 0-22.89 1.476-32.695 4.428-9.8 2.95-18.08 7.09-24.838 12.42-6.755 5.33-12.135 10.277-16.13 14.843-3.797 4.34-7.51 9.39-11.135 15.108v-40.232h-93.935l.288 13.706c.193 9.14.288 37.307.288 84.508 0 47.205-.19 108.777-.572 184.722h93.935V270.94c0-9.705 1.04-17.412 3.14-23.127 4-9.712 10.036-17.843 18.13-24.407 8.093-6.572 18.13-9.855 30.125-9.855 16.363 0 28.406 5.665 36.116 16.99 7.707 11.324 11.56 26.98 11.56 46.966V428.82h93.932V266.664c-.007-41.688-9.897-73.328-29.694-94.925zM53.102 9.708c-15.795 0-28.594 4.62-38.4 13.848C4.9 32.786 0 44.44 0 58.53c0 13.89 4.758 25.504 14.275 34.828 9.514 9.325 22.078 13.99 37.685 13.99h.57c15.99 0 28.888-4.66 38.69-13.99 9.8-9.324 14.605-20.934 14.416-34.83-.19-14.086-5.047-25.74-14.56-34.972C81.56 14.323 68.9 9.708 53.102 9.708z"/>
    </symbol>
    <symbol viewBox="0 0 16 16" id="wifi">
        <path class="wifi_1" d="M4.4 13.8c0 1.215-.985 2.2-2.2 2.2S0 15.015 0 13.8c0-1.215.985-2.2 2.2-2.2s2.2.985 2.2 2.2zm6.2 2.2H7.5c0-4.1-3.4-7.5-7.5-7.5V5.4c5.9 0 10.6 4.7 10.6 10.6z"/>
        <path class="wifi_2" d="M12.8 16C12.8 8.9 7.1 3.2 0 3.2V0c8.8 0 16 7.2 16 16h-3.2z"/>
    </symbol>
    <symbol viewBox="0 0 16 16" id="twitter">
        <path class="twitter" d="M16 3c-.6.3-1.2.4-1.9.5.7-.4 1.2-1 1.4-1.8-.6.4-1.3.6-2.1.8-.6-.6-1.5-1-2.4-1-1.7 0-3.2 1.5-3.2 3.3 0 .3 0 .5.1.7-2.7-.1-5.2-1.4-6.8-3.4-.3.5-.4 1-.4 1.7 0 1.1.6 2.1 1.5 2.7-.5 0-1-.2-1.5-.4C.7 7.7 1.8 9 3.3 9.3c-.3.1-.6.1-.9.1-.2 0-.4 0-.6-.1.4 1.3 1.6 2.3 3.1 2.3-1.1.9-2.5 1.4-4.1 1.4H0c1.5.9 3.2 1.5 5 1.5 6 0 9.3-5 9.3-9.3v-.4C15 4.3 15.6 3.7 16 3z"/>
    </symbol>
    <symbol viewBox="0 0 16 16" id="fb">
        <path class="fb" d="M7.2 16V8.5h-2V5.8h2V3.5C7.2 1.7 8.4 0 11.1 0c1.1 0 1.9.1 1.9.1l-.1 2.5h-1.7c-1 0-1.1.4-1.1 1.2v2H13l-.1 2.7h-2.8V16H7.2z"/>
    </symbol>

</svg>